<svg data-v-fde0c5aa="" xmlns="http://www.w3.org/2000/svg" viewBox="0 0 300 300" class="iconLeft"><!----><defs data-v-fde0c5aa=""><!----></defs><rect data-v-fde0c5aa="" fill="transparent" x="0" y="0" width="300px" height="300px" class="logo-background-square"></rect><defs data-v-fde0c5aa=""><!----></defs><g data-v-fde0c5aa="" id="bb6fb302-26df-4bdf-9b4f-3c667daae682" fill="#000000" transform="matrix(1.7961538142136395,0,0,1.7961538142136395,83.8512019835212,129.91001969079718)"><path d="M3.11 9.91L3.11 14.69L3.11 14.69Q2.97 14.73 2.67 14.77L2.67 14.77L2.67 14.77Q2.37 14.81 2.04 14.81L2.04 14.81L2.04 14.81Q1.74 14.81 1.49 14.77L1.49 14.77L1.49 14.77Q1.25 14.73 1.08 14.60L1.08 14.60L1.08 14.60Q0.91 14.48 0.82 14.26L0.82 14.26L0.82 14.26Q0.73 14.04 0.73 13.69L0.73 13.69L0.73 9.49L0.73 9.49Q0.73 9.17 0.85 8.94L0.85 8.94L0.85 8.94Q0.97 8.71 1.19 8.53L1.19 8.53L1.19 8.53Q1.41 8.34 1.74 8.20L1.74 8.20L1.74 8.20Q2.07 8.05 2.45 7.94L2.45 7.94L2.45 7.94Q2.83 7.83 3.23 7.76L3.23 7.76L3.23 7.76Q3.64 7.70 4.05 7.70L4.05 7.70L4.05 7.70Q4.72 7.70 5.11 7.96L5.11 7.96L5.11 7.96Q5.50 8.22 5.50 8.81L5.50 8.81L5.50 8.81Q5.50 9.00 5.45 9.19L5.45 9.19L5.45 9.19Q5.39 9.38 5.31 9.53L5.31 9.53L5.31 9.53Q5.01 9.53 4.70 9.56L4.70 9.56L4.70 9.56Q4.40 9.59 4.10 9.65L4.10 9.65L4.10 9.65Q3.81 9.70 3.55 9.77L3.55 9.77L3.55 9.77Q3.29 9.83 3.11 9.91L3.11 9.91ZM10.08 14.92L10.08 14.92L10.08 14.92Q9.25 14.92 8.55 14.69L8.55 14.69L8.55 14.69Q7.84 14.46 7.32 14.00L7.32 14.00L7.32 14.00Q6.79 13.54 6.49 12.84L6.49 12.84L6.49 12.84Q6.19 12.14 6.19 11.20L6.19 11.20L6.19 11.20Q6.19 10.28 6.49 9.61L6.49 9.61L6.49 9.61Q6.79 8.95 7.28 8.52L7.28 8.52L7.28 8.52Q7.77 8.09 8.40 7.89L8.40 7.89L8.40 7.89Q9.03 7.69 9.69 7.69L9.69 7.69L9.69 7.69Q10.43 7.69 11.04 7.91L11.04 7.91L11.04 7.91Q11.65 8.13 12.09 8.53L12.09 8.53L12.09 8.53Q12.53 8.92 12.78 9.46L12.78 9.46L12.78 9.46Q13.02 10.01 13.02 10.65L13.02 10.65L13.02 10.65Q13.02 11.13 12.75 11.38L12.75 11.38L12.75 11.38Q12.49 11.63 12.01 11.70L12.01 11.70L8.55 12.22L8.55 12.22Q8.71 12.68 9.18 12.92L9.18 12.92L9.18 12.92Q9.66 13.15 10.28 13.15L10.28 13.15L10.28 13.15Q10.85 13.15 11.36 13.00L11.36 13.00L11.36 13.00Q11.87 12.85 12.19 12.66L12.19 12.66L12.19 12.66Q12.42 12.80 12.57 13.05L12.57 13.05L12.57 13.05Q12.73 13.30 12.73 13.58L12.73 13.58L12.73 13.58Q12.73 14.21 12.14 14.52L12.14 14.52L12.14 14.52Q11.69 14.76 11.13 14.84L11.13 14.84L11.13 14.84Q10.57 14.92 10.08 14.92ZM9.69 9.42L9.69 9.42L9.69 9.42Q9.35 9.42 9.11 9.53L9.11 9.53L9.11 9.53Q8.86 9.65 8.71 9.82L8.71 9.82L8.71 9.82Q8.55 10.00 8.48 10.21L8.48 10.21L8.48 10.21Q8.40 10.43 8.39 10.65L8.39 10.65L10.78 10.26L10.78 10.26Q10.74 9.98 10.47 9.70L10.47 9.70L10.47 9.70Q10.21 9.42 9.69 9.42ZM17.08 13.19L17.08 13.19L17.08 13.19Q17.32 13.19 17.61 13.14L17.61 13.14L17.61 13.14Q17.89 13.09 18.03 13.01L18.03 13.01L18.03 11.89L17.02 11.97L17.02 11.97Q16.63 12.00 16.38 12.14L16.38 12.14L16.38 12.14Q16.13 12.28 16.13 12.56L16.13 12.56L16.13 12.56Q16.13 12.84 16.35 13.01L16.35 13.01L16.35 13.01Q16.56 13.19 17.08 13.19ZM16.97 7.69L16.97 7.69L16.97 7.69Q17.72 7.69 18.35 7.84L18.35 7.84L18.35 7.84Q18.97 7.99 19.41 8.31L19.41 8.31L19.41 8.31Q19.85 8.62 20.09 9.11L20.09 9.11L20.09 9.11Q20.33 9.59 20.33 10.25L20.33 10.25L20.33 13.38L20.33 13.38Q20.33 13.75 20.13 13.98L20.13 13.98L20.13 13.98Q19.92 14.21 19.64 14.38L19.64 14.38L19.64 14.38Q18.73 14.92 17.08 14.92L17.08 14.92L17.08 14.92Q16.34 14.92 15.74 14.78L15.74 14.78L15.74 14.78Q15.15 14.64 14.72 14.36L14.72 14.36L14.72 14.36Q14.29 14.08 14.06 13.65L14.06 13.65L14.06 13.65Q13.83 13.22 13.83 12.64L13.83 12.64L13.83 12.64Q13.83 11.68 14.41 11.16L14.41 11.16L14.41 11.16Q14.98 10.64 16.18 10.51L16.18 10.51L18.02 10.32L18.02 10.22L18.02 10.22Q18.02 9.81 17.66 9.64L17.66 9.64L17.66 9.64Q17.30 9.46 16.63 9.46L16.63 9.46L16.63 9.46Q16.10 9.46 15.60 9.58L15.60 9.58L15.60 9.58Q15.09 9.69 14.69 9.86L14.69 9.86L14.69 9.86Q14.50 9.73 14.38 9.47L14.38 9.47L14.38 9.47Q14.25 9.21 14.25 8.93L14.25 8.93L14.25 8.93Q14.25 8.57 14.43 8.35L14.43 8.35L14.43 8.35Q14.60 8.13 14.97 7.98L14.97 7.98L14.97 7.98Q15.37 7.83 15.93 7.76L15.93 7.76L15.93 7.76Q16.48 7.69 16.97 7.69ZM25.62 9.56L25.62 9.56L25.62 9.56Q25.27 9.56 24.96 9.67L24.96 9.67L24.96 9.67Q24.64 9.79 24.41 10.00L24.41 10.00L24.41 10.00Q24.18 10.22 24.04 10.54L24.04 10.54L24.04 10.54Q23.90 10.86 23.90 11.30L23.90 11.30L23.90 11.30Q23.90 12.17 24.39 12.60L24.39 12.60L24.39 12.60Q24.89 13.03 25.61 13.03L25.61 13.03L25.61 13.03Q26.03 13.03 26.33 12.94L26.33 12.94L26.33 12.94Q26.64 12.84 26.88 12.73L26.88 12.73L26.88 12.73Q27.16 12.92 27.30 13.15L27.30 13.15L27.30 13.15Q27.44 13.38 27.44 13.71L27.44 13.71L27.44 13.71Q27.44 14.28 26.89 14.60L26.89 14.60L26.89 14.60Q26.35 14.91 25.38 14.91L25.38 14.91L25.38 14.91Q24.50 14.91 23.79 14.65L23.79 14.65L23.79 14.65Q23.07 14.39 22.56 13.92L22.56 13.92L22.56 13.92Q22.05 13.45 21.77 12.80L21.77 12.80L21.77 12.80Q21.49 12.14 21.49 11.34L21.49 11.34L21.49 11.34Q21.49 10.42 21.79 9.72L21.79 9.72L21.79 9.72Q22.09 9.03 22.61 8.58L22.61 8.58L22.61 8.58Q23.13 8.13 23.81 7.91L23.81 7.91L23.81 7.91Q24.49 7.69 25.24 7.69L25.24 7.69L25.24 7.69Q26.25 7.69 26.80 8.05L26.80 8.05L26.80 8.05Q27.34 8.41 27.34 8.99L27.34 8.99L27.34 8.99Q27.34 9.25 27.22 9.49L27.22 9.49L27.22 9.49Q27.09 9.72 26.92 9.88L26.92 9.88L26.92 9.88Q26.68 9.77 26.35 9.67L26.35 9.67L26.35 9.67Q26.01 9.56 25.62 9.56ZM31.01 10.25L31.01 12.36L31.01 12.36Q31.01 12.73 31.24 12.88L31.24 12.88L31.24 12.88Q31.47 13.03 31.89 13.03L31.89 13.03L31.89 13.03Q32.10 13.03 32.33 13.00L32.33 13.00L32.33 13.00Q32.55 12.96 32.72 12.91L32.72 12.91L32.72 12.91Q32.84 13.06 32.94 13.25L32.94 13.25L32.94 13.25Q33.03 13.44 33.03 13.71L33.03 13.71L33.03 13.71Q33.03 14.24 32.63 14.57L32.63 14.57L32.63 14.57Q32.23 14.91 31.22 14.91L31.22 14.91L31.22 14.91Q29.99 14.91 29.32 14.35L29.32 14.35L29.32 14.35Q28.66 13.79 28.66 12.53L28.66 12.53L28.66 6.54L28.66 6.54Q28.81 6.50 29.10 6.45L29.10 6.45L29.10 6.45Q29.39 6.40 29.71 6.40L29.71 6.40L29.71 6.40Q30.32 6.40 30.67 6.62L30.67 6.62L30.67 6.62Q31.01 6.83 31.01 7.53L31.01 7.53L31.01 8.43L32.84 8.43L32.84 8.43Q32.93 8.58 33.01 8.81L33.01 8.81L33.01 8.81Q33.08 9.04 33.08 9.32L33.08 9.32L33.08 9.32Q33.08 9.81 32.87 10.03L32.87 10.03L32.87 10.03Q32.65 10.25 32.28 10.25L32.28 10.25L31.01 10.25ZM37.18 12.10L34.19 12.10L34.19 12.10Q34.09 11.94 34.01 11.69L34.01 11.69L34.01 11.69Q33.92 11.44 33.92 11.16L33.92 11.16L33.92 11.16Q33.92 10.64 34.16 10.41L34.16 10.41L34.16 10.41Q34.40 10.18 34.78 10.18L34.78 10.18L37.77 10.18L37.77 10.18Q37.86 10.33 37.95 10.58L37.95 10.58L37.95 10.58Q38.04 10.84 38.04 11.12L38.04 11.12L38.04 11.12Q38.04 11.63 37.80 11.87L37.80 11.87L37.80 11.87Q37.56 12.10 37.18 12.10L37.18 12.10ZM39.21 13.69L39.21 7.90L39.21 7.90Q39.21 7.18 39.46 6.67L39.46 6.67L39.46 6.67Q39.70 6.16 40.12 5.83L40.12 5.83L40.12 5.83Q40.54 5.50 41.11 5.35L41.11 5.35L41.11 5.35Q41.68 5.19 42.32 5.19L42.32 5.19L42.32 5.19Q43.36 5.19 43.85 5.47L43.85 5.47L43.85 5.47Q44.34 5.74 44.34 6.40L44.34 6.40L44.34 6.40Q44.34 6.68 44.22 6.90L44.22 6.90L44.22 6.90Q44.10 7.13 43.96 7.24L43.96 7.24L43.96 7.24Q43.69 7.17 43.41 7.12L43.41 7.12L43.41 7.12Q43.12 7.07 42.74 7.07L42.74 7.07L42.74 7.07Q42.14 7.07 41.80 7.27L41.80 7.27L41.80 7.27Q41.47 7.48 41.47 7.98L41.47 7.98L41.47 8.43L43.76 8.43L43.76 8.43Q43.85 8.58 43.93 8.81L43.93 8.81L43.93 8.81Q44.00 9.04 44.00 9.32L44.00 9.32L44.00 9.32Q44.00 9.81 43.79 10.03L43.79 10.03L43.79 10.03Q43.57 10.25 43.20 10.25L43.20 10.25L41.59 10.25L41.59 14.69L41.59 14.69Q41.45 14.73 41.15 14.77L41.15 14.77L41.15 14.77Q40.85 14.81 40.53 14.81L40.53 14.81L40.53 14.81Q40.22 14.81 39.98 14.77L39.98 14.77L39.98 14.77Q39.73 14.73 39.56 14.60L39.56 14.60L39.56 14.60Q39.40 14.48 39.31 14.26L39.31 14.26L39.31 14.26Q39.21 14.04 39.21 13.69L39.21 13.69ZM52.25 11.30L52.25 11.30L52.25 11.30Q52.25 12.17 51.98 12.85L51.98 12.85L51.98 12.85Q51.72 13.52 51.23 13.99L51.23 13.99L51.23 13.99Q50.75 14.45 50.08 14.69L50.08 14.69L50.08 14.69Q49.41 14.92 48.58 14.92L48.58 14.92L48.58 14.92Q47.75 14.92 47.08 14.67L47.08 14.67L47.08 14.67Q46.41 14.42 45.93 13.95L45.93 13.95L45.93 13.95Q45.44 13.48 45.18 12.81L45.18 12.81L45.18 12.81Q44.91 12.14 44.91 11.30L44.91 11.30L44.91 11.30Q44.91 10.47 45.18 9.80L45.18 9.80L45.18 9.80Q45.44 9.13 45.93 8.66L45.93 8.66L45.93 8.66Q46.41 8.19 47.08 7.94L47.08 7.94L47.08 7.94Q47.75 7.69 48.58 7.69L48.58 7.69L48.58 7.69Q49.41 7.69 50.08 7.95L50.08 7.95L50.08 7.95Q50.75 8.20 51.23 8.67L51.23 8.67L51.23 8.67Q51.72 9.14 51.98 9.81L51.98 9.81L51.98 9.81Q52.25 10.49 52.25 11.30ZM47.35 11.30L47.35 11.30L47.35 11.30Q47.35 12.15 47.68 12.61L47.68 12.61L47.68 12.61Q48.01 13.06 48.59 13.06L48.59 13.06L48.59 13.06Q49.18 13.06 49.50 12.60L49.50 12.60L49.50 12.60Q49.81 12.14 49.81 11.30L49.81 11.30L49.81 11.30Q49.81 10.46 49.49 10.00L49.49 10.00L49.49 10.00Q49.17 9.55 48.58 9.55L48.58 9.55L48.58 9.55Q47.99 9.55 47.67 10.00L47.67 10.00L47.67 10.00Q47.35 10.46 47.35 11.30ZM55.79 9.91L55.79 14.69L55.79 14.69Q55.65 14.73 55.35 14.77L55.35 14.77L55.35 14.77Q55.05 14.81 54.73 14.81L54.73 14.81L54.73 14.81Q54.42 14.81 54.17 14.77L54.17 14.77L54.17 14.77Q53.93 14.73 53.76 14.60L53.76 14.60L53.76 14.60Q53.59 14.48 53.50 14.26L53.50 14.26L53.50 14.26Q53.41 14.04 53.41 13.69L53.41 13.69L53.41 9.49L53.41 9.49Q53.41 9.17 53.53 8.94L53.53 8.94L53.53 8.94Q53.65 8.71 53.87 8.53L53.87 8.53L53.87 8.53Q54.10 8.34 54.43 8.20L54.43 8.20L54.43 8.20Q54.75 8.05 55.13 7.94L55.13 7.94L55.13 7.94Q55.51 7.83 55.92 7.76L55.92 7.76L55.92 7.76Q56.32 7.70 56.73 7.70L56.73 7.70L56.73 7.70Q57.40 7.70 57.79 7.96L57.79 7.96L57.79 7.96Q58.18 8.22 58.18 8.81L58.18 8.81L58.18 8.81Q58.18 9.00 58.13 9.19L58.13 9.19L58.13 9.19Q58.07 9.38 57.99 9.53L57.99 9.53L57.99 9.53Q57.69 9.53 57.39 9.56L57.39 9.56L57.39 9.56Q57.08 9.59 56.78 9.65L56.78 9.65L56.78 9.65Q56.49 9.70 56.23 9.77L56.23 9.77L56.23 9.77Q55.97 9.83 55.79 9.91L55.79 9.91ZM62.43 7.69L62.43 7.69L62.43 7.69Q63.00 7.69 63.55 7.85L63.55 7.85L63.55 7.85Q64.11 8.01 64.51 8.33L64.51 8.33L64.51 8.33Q64.93 8.05 65.46 7.87L65.46 7.87L65.46 7.87Q65.98 7.69 66.72 7.69L66.72 7.69L66.72 7.69Q67.26 7.69 67.77 7.83L67.77 7.83L67.77 7.83Q68.28 7.97 68.68 8.27L68.68 8.27L68.68 8.27Q69.08 8.57 69.31 9.07L69.31 9.07L69.31 9.07Q69.55 9.56 69.55 10.28L69.55 10.28L69.55 14.69L69.55 14.69Q69.41 14.73 69.11 14.77L69.11 14.77L69.11 14.77Q68.81 14.81 68.49 14.81L68.49 14.81L68.49 14.81Q68.18 14.81 67.94 14.77L67.94 14.77L67.94 14.77Q67.69 14.73 67.52 14.60L67.52 14.60L67.52 14.60Q67.35 14.48 67.26 14.26L67.26 14.26L67.26 14.26Q67.17 14.04 67.17 13.69L67.17 13.69L67.17 10.35L67.17 10.35Q67.17 9.93 66.93 9.74L66.93 9.74L66.93 9.74Q66.70 9.55 66.29 9.55L66.29 9.55L66.29 9.55Q66.09 9.55 65.87 9.64L65.87 9.64L65.87 9.64Q65.65 9.73 65.53 9.83L65.53 9.83L65.53 9.83Q65.55 9.88 65.55 9.93L65.55 9.93L65.55 9.93Q65.55 9.98 65.55 10.02L65.55 10.02L65.55 14.69L65.55 14.69Q65.39 14.73 65.09 14.77L65.09 14.77L65.09 14.77Q64.79 14.81 64.48 14.81L64.48 14.81L64.48 14.81Q64.18 14.81 63.93 14.77L63.93 14.77L63.93 14.77Q63.69 14.73 63.52 14.60L63.52 14.60L63.52 14.60Q63.35 14.48 63.26 14.26L63.26 14.26L63.26 14.26Q63.17 14.04 63.17 13.69L63.17 13.69L63.17 10.35L63.17 10.35Q63.17 9.93 62.91 9.74L62.91 9.74L62.91 9.74Q62.65 9.55 62.29 9.55L62.29 9.55L62.29 9.55Q62.03 9.55 61.85 9.63L61.85 9.63L61.85 9.63Q61.67 9.70 61.54 9.77L61.54 9.77L61.54 14.69L61.54 14.69Q61.40 14.73 61.10 14.77L61.10 14.77L61.10 14.77Q60.80 14.81 60.48 14.81L60.48 14.81L60.48 14.81Q60.17 14.81 59.93 14.77L59.93 14.77L59.93 14.77Q59.68 14.73 59.51 14.60L59.51 14.60L59.51 14.60Q59.35 14.48 59.26 14.26L59.26 14.26L59.26 14.26Q59.16 14.04 59.16 13.69L59.16 13.69L59.16 9.46L59.16 9.46Q59.16 9.09 59.33 8.86L59.33 8.86L59.33 8.86Q59.49 8.64 59.77 8.44L59.77 8.44L59.77 8.44Q60.24 8.11 60.95 7.90L60.95 7.90L60.95 7.90Q61.66 7.69 62.43 7.69ZM73.96 12.10L70.97 12.10L70.97 12.10Q70.87 11.94 70.78 11.69L70.78 11.69L70.78 11.69Q70.70 11.44 70.70 11.16L70.70 11.16L70.70 11.16Q70.70 10.64 70.94 10.41L70.94 10.41L70.94 10.41Q71.18 10.18 71.55 10.18L71.55 10.18L74.55 10.18L74.55 10.18Q74.63 10.33 74.72 10.58L74.72 10.58L74.72 10.58Q74.82 10.84 74.82 11.12L74.82 11.12L74.82 11.12Q74.82 11.63 74.58 11.87L74.58 11.87L74.58 11.87Q74.34 12.10 73.96 12.10L73.96 12.10ZM78.88 13.19L78.88 13.19L78.88 13.19Q79.11 13.19 79.40 13.14L79.40 13.14L79.40 13.14Q79.69 13.09 79.83 13.01L79.83 13.01L79.83 11.89L78.82 11.97L78.82 11.97Q78.43 12.00 78.18 12.14L78.18 12.14L78.18 12.14Q77.92 12.28 77.92 12.56L77.92 12.56L77.92 12.56Q77.92 12.84 78.14 13.01L78.14 13.01L78.14 13.01Q78.36 13.19 78.88 13.19ZM78.76 7.69L78.76 7.69L78.76 7.69Q79.52 7.69 80.14 7.84L80.14 7.84L80.14 7.84Q80.77 7.99 81.21 8.31L81.21 8.31L81.21 8.31Q81.65 8.62 81.89 9.11L81.89 9.11L81.89 9.11Q82.12 9.59 82.12 10.25L82.12 10.25L82.12 13.38L82.12 13.38Q82.12 13.75 81.92 13.98L81.92 13.98L81.92 13.98Q81.72 14.21 81.44 14.38L81.44 14.38L81.44 14.38Q80.53 14.92 78.88 14.92L78.88 14.92L78.88 14.92Q78.13 14.92 77.54 14.78L77.54 14.78L77.54 14.78Q76.94 14.64 76.52 14.36L76.52 14.36L76.52 14.36Q76.09 14.08 75.86 13.65L75.86 13.65L75.86 13.65Q75.63 13.22 75.63 12.64L75.63 12.64L75.63 12.64Q75.63 11.68 76.20 11.16L76.20 11.16L76.20 11.16Q76.78 10.64 77.98 10.51L77.98 10.51L79.81 10.32L79.81 10.22L79.81 10.22Q79.81 9.81 79.46 9.64L79.46 9.64L79.46 9.64Q79.10 9.46 78.43 9.46L78.43 9.46L78.43 9.46Q77.90 9.46 77.39 9.58L77.39 9.58L77.39 9.58Q76.89 9.69 76.48 9.86L76.48 9.86L76.48 9.86Q76.30 9.73 76.17 9.47L76.17 9.47L76.17 9.47Q76.05 9.21 76.05 8.93L76.05 8.93L76.05 8.93Q76.05 8.57 76.22 8.35L76.22 8.35L76.22 8.35Q76.40 8.13 76.76 7.98L76.76 7.98L76.76 7.98Q77.17 7.83 77.72 7.76L77.72 7.76L77.72 7.76Q78.27 7.69 78.76 7.69ZM86.00 6.57L86.00 14.69L86.00 14.69Q85.85 14.71 85.55 14.76L85.55 14.76L85.55 14.76Q85.25 14.81 84.94 14.81L84.94 14.81L84.94 14.81Q84.63 14.81 84.39 14.77L84.39 14.77L84.39 14.77Q84.14 14.73 83.97 14.60L83.97 14.60L83.97 14.60Q83.80 14.48 83.71 14.26L83.71 14.26L83.71 14.26Q83.62 14.04 83.62 13.69L83.62 13.69L83.62 5.57L83.62 5.57Q83.78 5.54 84.08 5.50L84.08 5.50L84.08 5.50Q84.38 5.45 84.69 5.45L84.69 5.45L84.69 5.45Q84.99 5.45 85.24 5.49L85.24 5.49L85.24 5.49Q85.48 5.53 85.65 5.66L85.65 5.66L85.65 5.66Q85.82 5.78 85.91 6.00L85.91 6.00L85.91 6.00Q86.00 6.22 86.00 6.57L86.00 6.57ZM89.92 6.57L89.92 14.69L89.92 14.69Q89.77 14.71 89.47 14.76L89.47 14.76L89.47 14.76Q89.17 14.81 88.86 14.81L88.86 14.81L88.86 14.81Q88.55 14.81 88.31 14.77L88.31 14.77L88.31 14.77Q88.06 14.73 87.89 14.60L87.89 14.60L87.89 14.60Q87.72 14.48 87.63 14.26L87.63 14.26L87.63 14.26Q87.54 14.04 87.54 13.69L87.54 13.69L87.54 5.57L87.54 5.57Q87.70 5.54 88.00 5.50L88.00 5.50L88.00 5.50Q88.30 5.45 88.61 5.45L88.61 5.45L88.61 5.45Q88.91 5.45 89.16 5.49L89.16 5.49L89.16 5.49Q89.40 5.53 89.57 5.66L89.57 5.66L89.57 5.66Q89.74 5.78 89.83 6.00L89.83 6.00L89.83 6.00Q89.92 6.22 89.92 6.57L89.92 6.57ZM92.48 12.96L92.48 12.96L92.48 12.96Q92.33 12.61 92.16 12.18L92.16 12.18L92.16 12.18Q91.98 11.75 91.79 11.19L91.79 11.19L91.79 11.19Q91.60 10.63 91.40 9.91L91.40 9.91L91.40 9.91Q91.20 9.18 90.97 8.25L90.97 8.25L90.97 8.25Q91.17 8.05 91.50 7.90L91.50 7.90L91.50 7.90Q91.83 7.76 92.22 7.76L92.22 7.76L92.22 7.76Q92.71 7.76 93.03 7.96L93.03 7.96L93.03 7.96Q93.35 8.16 93.51 8.72L93.51 8.72L94.61 12.57L94.67 12.57L94.67 12.57Q94.84 12.10 95.00 11.54L95.00 11.54L95.00 11.54Q95.16 10.98 95.31 10.38L95.31 10.38L95.31 10.38Q95.47 9.79 95.60 9.19L95.60 9.19L95.60 9.19Q95.73 8.60 95.83 8.02L95.83 8.02L95.83 8.02Q96.33 7.76 96.94 7.76L96.94 7.76L96.94 7.76Q97.43 7.76 97.75 7.97L97.75 7.97L97.75 7.97Q98.07 8.18 98.07 8.69L98.07 8.69L98.07 8.69Q98.07 9.07 97.97 9.57L97.97 9.57L97.97 9.57Q97.87 10.07 97.71 10.63L97.71 10.63L97.71 10.63Q97.55 11.19 97.34 11.78L97.34 11.78L97.34 11.78Q97.12 12.38 96.88 12.95L96.88 12.95L96.88 12.95Q96.64 13.52 96.39 14.04L96.39 14.04L96.39 14.04Q96.14 14.55 95.90 14.95L95.90 14.95L95.90 14.95Q95.51 15.64 95.17 16.07L95.17 16.07L95.17 16.07Q94.84 16.51 94.53 16.75L94.53 16.75L94.53 16.75Q94.22 17.00 93.91 17.09L93.91 17.09L93.91 17.09Q93.60 17.18 93.27 17.18L93.27 17.18L93.27 17.18Q92.68 17.18 92.32 16.83L92.32 16.83L92.32 16.83Q91.95 16.48 91.88 15.92L91.88 15.92L91.88 15.92Q92.33 15.57 92.78 15.14L92.78 15.14L92.78 15.14Q93.23 14.71 93.59 14.27L93.59 14.27L93.59 14.27Q93.35 14.20 93.08 13.94L93.08 13.94L93.08 13.94Q92.81 13.68 92.48 12.96Z"></path></g><defs data-v-fde0c5aa=""><linearGradient data-v-fde0c5aa="" gradientTransform="rotate(25)" id="ab8441c6-364c-40ca-9fa9-4ef990f6ea57" x1="0%" y1="0%" x2="100%" y2="0%"><stop data-v-fde0c5aa="" offset="0%" stop-color="#0D7CE9" stop-opacity="1"></stop><stop data-v-fde0c5aa="" offset="100%" stop-color="#15CFF1" stop-opacity="1"></stop></linearGradient></defs><g data-v-fde0c5aa="" id="8622178d-7709-4fbf-9dad-2883862a5c87" stroke="none" fill="url(#ab8441c6-364c-40ca-9fa9-4ef990f6ea57)" transform="matrix(0.36452070334897113,0,0,0.36452070334897113,37.89197642767994,131.79182626914553)"><path d="M36.116 63.555a6.187 6.187 0 0 1-6.187-6.186V37.684c0-17.668 14.376-32.043 32.045-32.043 17.668 0 32.041 14.375 32.041 32.043a6.186 6.186 0 1 1-12.372 0c0-10.846-8.824-19.671-19.67-19.671-10.848 0-19.672 8.825-19.672 19.671v19.685a6.184 6.184 0 0 1-6.185 6.186z"></path><path d="M37.825 94.261c-17.668 0-32.042-14.373-32.042-32.042a6.186 6.186 0 0 1 12.373 0c0 10.845 8.824 19.67 19.67 19.67 10.847 0 19.672-8.825 19.672-19.67V42.533a6.187 6.187 0 1 1 12.372 0v19.686c-.002 17.669-14.376 32.042-32.045 32.042z"></path></g><!----></svg>