<svg data-v-fde0c5aa="" xmlns="http://www.w3.org/2000/svg" viewBox="0 0 215 20" width="215" height="20" class="iconLeft"><!----><defs data-v-fde0c5aa=""><!----></defs><!--<rect data-v-fde0c5aa="" fill="transparent" x="0" y="0" width="300px" height="300px" class="logo-background-square"></rect>--><defs data-v-fde0c5aa=""><!----></defs><g data-v-fde0c5aa="" id="03a58cab-8684-4355-9ad1-288b3294f2e8" fill="#000000" transform="matrix(2.66904, 0, 0, 2.66904, 33.2482, -9.174)"><path d="M2.71 5.67L2.71 5.67L2.71 5.67Q2.85 5.82 2.94 5.99L2.94 5.99L2.94 5.99Q3.02 6.16 3.11 6.34L3.11 6.34L3.11 6.34Q3.21 6.54 3.17 6.74L3.17 6.74L3.17 6.74Q3.13 6.94 2.95 7.13L2.95 7.13L2.95 7.13Q2.80 7.28 2.47 7.37L2.47 7.37L2.47 7.37Q2.34 7.40 2.20 7.44L2.20 7.44L2.20 7.44Q2.06 7.48 2.01 7.60L2.01 7.60L2.01 7.60Q1.97 7.72 2.03 7.84L2.03 7.84L2.03 7.84Q2.10 7.97 2.14 8.05L2.14 8.05L2.14 8.05Q2.18 8.13 2.21 8.18L2.21 8.18L2.21 8.18Q2.24 8.24 2.30 8.33L2.30 8.33L2.30 8.33Q2.35 8.42 2.43 8.52L2.43 8.52L2.43 8.52Q2.58 8.74 2.76 8.93L2.76 8.93L2.76 8.93Q2.93 9.13 3.11 9.30L3.11 9.30L3.14 9.34L3.14 9.34Q3.29 9.49 3.15 9.63L3.15 9.63L3.15 9.63Q2.99 9.79 2.85 9.64L2.85 9.64L2.85 9.64Q2.73 9.52 2.65 9.43L2.65 9.43L2.65 9.43Q2.56 9.34 2.48 9.26L2.48 9.26L2.48 9.26Q2.32 9.05 2.17 8.83L2.17 8.83L2.17 8.83Q2.07 8.67 1.97 8.53L1.97 8.53L1.97 8.53Q1.86 8.39 1.76 8.23L1.76 8.23L1.76 8.23Q1.49 7.74 1.09 7.58L1.09 7.58L1.09 7.58Q0.66 7.42 0.46 7.70L0.46 7.70L0.46 7.70Q0.40 7.80 0.40 7.92L0.40 7.92L0.40 9.40L0.40 9.49L0.40 9.49Q0.40 9.69 0.18 9.70L0.18 9.70L0.18 9.70Q-0.03 9.69-0.03 9.44L-0.03 9.44L-0.03 9.44Q-0.03 9.28-0.02 9.12L-0.02 9.12L-0.02 9.12Q-0.01 8.95 0 8.76L0 8.76L0 8.76Q0.01 8.63-0.00 8.49L-0.00 8.49L-0.00 8.49Q-0.01 8.35-0.01 8.22L-0.01 8.22L-0.01 8.22Q-0.01 8.09-0.01 7.96L-0.01 7.96L-0.01 7.96Q0 7.83 0 7.70L0 7.70L0 7.70Q0.01 7.40-0.02 7.07L-0.02 7.07L-0.02 7.07Q-0.02 6.84-0.01 6.61L-0.01 6.61L-0.01 6.61Q0 6.38-0.01 6.14L-0.01 6.14L-0.01 6.14Q-0.01 6.02-0.01 5.86L-0.01 5.86L-0.01 5.86Q-0.01 5.71 0.03 5.58L0.03 5.58L0.03 5.58Q0.15 5.42 0.61 5.42L0.61 5.42L0.82 5.42L0.82 5.42Q1.07 5.42 1.32 5.44L1.32 5.44L1.32 5.44Q1.57 5.46 1.81 5.45L1.81 5.45L1.81 5.45Q2.38 5.42 2.71 5.67ZM0.79 7.15L0.79 7.15L0.79 7.15Q1.05 7.16 1.24 7.16L1.24 7.16L1.24 7.16Q1.44 7.16 1.58 7.14L1.58 7.14L1.58 7.14Q1.71 7.13 1.87 7.11L1.87 7.11L1.87 7.11Q2.03 7.09 2.22 7.05L2.22 7.05L2.22 7.05Q2.61 6.97 2.73 6.69L2.73 6.69L2.73 6.69Q2.78 6.59 2.76 6.47L2.76 6.47L2.76 6.47Q2.75 6.34 2.68 6.24L2.68 6.24L2.68 6.24Q2.62 6.14 2.52 6.07L2.52 6.07L2.52 6.07Q2.42 6.00 2.30 5.94L2.30 5.94L2.30 5.94Q2.19 5.89 2.08 5.87L2.08 5.87L2.08 5.87Q1.79 5.82 1.51 5.83L1.51 5.83L1.51 5.83Q1.22 5.84 0.94 5.82L0.94 5.82L0.94 5.82Q0.88 5.82 0.83 5.82L0.83 5.82L0.83 5.82Q0.78 5.82 0.72 5.82L0.72 5.82L0.72 5.82Q0.58 5.81 0.51 5.89L0.51 5.89L0.51 5.89Q0.44 5.96 0.46 6.08L0.46 6.08L0.46 6.08Q0.46 6.12 0.46 6.23L0.46 6.23L0.46 6.23Q0.46 6.33 0.44 6.43L0.44 6.43L0.44 6.43Q0.42 6.52 0.42 6.62L0.42 6.62L0.42 6.62Q0.38 6.88 0.48 7.01L0.48 7.01L0.48 7.01Q0.57 7.14 0.79 7.15ZM4.98 9.29L4.98 9.29L4.98 9.29Q4.98 8.87 4.98 8.46L4.98 8.46L4.98 8.46Q4.98 8.04 4.98 7.62L4.98 7.62L4.98 7.38L4.98 7.38Q4.98 7.20 4.97 7.01L4.97 7.01L4.97 7.01Q4.96 6.82 4.98 6.64L4.98 6.64L4.98 6.64Q4.98 6.43 4.98 6.23L4.98 6.23L4.98 6.23Q4.98 6.03 4.99 5.82L4.99 5.82L4.99 5.82Q4.99 5.58 5.11 5.48L5.11 5.48L5.11 5.48Q5.20 5.41 5.42 5.41L5.42 5.41L5.42 5.41Q5.54 5.41 5.62 5.40L5.62 5.40L5.62 5.40Q5.71 5.40 5.77 5.40L5.77 5.40L5.77 5.40Q6.04 5.39 6.30 5.40L6.30 5.40L6.30 5.40Q6.57 5.41 6.84 5.41L6.84 5.41L6.84 5.41Q6.98 5.40 7.12 5.40L7.12 5.40L7.12 5.40Q7.27 5.39 7.40 5.41L7.40 5.41L7.75 5.43L7.75 5.43Q7.81 5.43 7.86 5.43L7.86 5.43L7.86 5.43Q7.90 5.43 7.94 5.45L7.94 5.45L7.94 5.45Q8.08 5.52 8.07 5.66L8.07 5.66L8.07 5.66Q8.07 5.72 8.03 5.76L8.03 5.76L8.03 5.76Q7.98 5.80 7.93 5.82L7.93 5.82L7.93 5.82Q7.88 5.84 7.83 5.84L7.83 5.84L7.83 5.84Q7.77 5.85 7.73 5.85L7.73 5.85L7.73 5.85Q7.31 5.85 6.90 5.83L6.90 5.83L6.90 5.83Q6.86 5.82 6.80 5.82L6.80 5.82L6.80 5.82Q6.74 5.82 6.67 5.82L6.67 5.82L6.27 5.82L6.27 5.82Q6.11 5.82 5.99 5.83L5.99 5.83L5.99 5.83Q5.87 5.83 5.78 5.83L5.78 5.83L5.78 5.83Q5.67 5.84 5.59 5.86L5.59 5.86L5.59 5.86Q5.52 5.89 5.48 5.94L5.48 5.94L5.48 5.94Q5.43 6.02 5.44 6.15L5.44 6.15L5.44 6.15Q5.44 6.20 5.44 6.24L5.44 6.24L5.44 6.24Q5.44 6.28 5.43 6.32L5.43 6.32L5.43 6.32Q5.42 6.40 5.41 6.49L5.41 6.49L5.41 6.49Q5.41 6.58 5.41 6.69L5.41 6.69L5.41 6.69Q5.41 6.88 5.56 7.01L5.56 7.01L5.56 7.01Q5.69 7.12 6.01 7.10L6.01 7.10L6.01 7.10Q6.15 7.10 6.29 7.08L6.29 7.08L6.29 7.08Q6.43 7.06 6.58 7.07L6.58 7.07L6.58 7.07Q6.64 7.07 6.74 7.07L6.74 7.07L6.74 7.07Q6.84 7.08 6.97 7.07L6.97 7.07L6.97 7.07Q7.25 7.06 7.34 7.16L7.34 7.16L7.34 7.16Q7.38 7.21 7.37 7.32L7.37 7.32L7.37 7.32Q7.35 7.44 7.18 7.47L7.18 7.47L7.18 7.47Q7.02 7.50 6.92 7.50L6.92 7.50L6.92 7.50Q6.80 7.51 6.68 7.50L6.68 7.50L6.68 7.50Q6.56 7.50 6.44 7.51L6.44 7.51L6.44 7.51Q6.29 7.52 6.13 7.51L6.13 7.51L6.13 7.51Q5.97 7.51 5.80 7.49L5.80 7.49L5.80 7.49Q5.78 7.49 5.76 7.49L5.76 7.49L5.76 7.49Q5.73 7.49 5.71 7.49L5.71 7.49L5.70 7.49L5.70 7.49Q5.63 7.47 5.55 7.52L5.55 7.52L5.55 7.52Q5.43 7.59 5.41 7.78L5.41 7.78L5.41 7.78Q5.40 7.96 5.41 8.09L5.41 8.09L5.41 8.09Q5.42 8.16 5.42 8.22L5.42 8.22L5.42 8.22Q5.43 8.29 5.42 8.33L5.42 8.33L5.42 8.33Q5.41 8.44 5.40 8.53L5.40 8.53L5.40 8.53Q5.39 8.63 5.37 8.74L5.37 8.74L5.37 8.74Q5.35 9.00 5.44 9.13L5.44 9.13L5.44 9.13Q5.56 9.28 5.84 9.28L5.84 9.28L5.84 9.28Q6.07 9.28 6.30 9.27L6.30 9.27L6.30 9.27Q6.54 9.26 6.77 9.25L6.77 9.25L6.77 9.25Q6.98 9.24 7.20 9.26L7.20 9.26L7.20 9.26Q7.42 9.28 7.64 9.28L7.64 9.28L7.64 9.28Q7.72 9.28 7.86 9.28L7.86 9.28L7.86 9.28Q8.00 9.28 8.07 9.32L8.07 9.32L8.07 9.32Q8.14 9.36 8.15 9.44L8.15 9.44L8.15 9.44Q8.22 9.69 7.94 9.70L7.94 9.70L7.94 9.70Q7.49 9.72 7.05 9.71L7.05 9.71L7.05 9.71Q6.62 9.71 6.18 9.71L6.18 9.71L6.18 9.71Q6.15 9.71 6.13 9.72L6.13 9.72L6.13 9.72Q6.10 9.72 6.08 9.72L6.08 9.72L6.08 9.72Q5.93 9.72 5.81 9.72L5.81 9.72L5.81 9.72Q5.70 9.72 5.63 9.71L5.63 9.71L5.63 9.71Q5.58 9.71 5.51 9.71L5.51 9.71L5.51 9.71Q5.45 9.71 5.37 9.70L5.37 9.70L5.37 9.70Q5.30 9.69 5.25 9.69L5.25 9.69L5.25 9.69Q5.21 9.68 5.19 9.67L5.19 9.67L5.19 9.67Q4.98 9.61 4.98 9.29ZM13.56 9.47L13.56 9.47L13.56 9.47Q13.56 9.65 13.42 9.69L13.42 9.69L13.42 9.69Q13.30 9.75 13.20 9.61L13.20 9.61L13.20 9.61Q13.15 9.54 13.12 9.49L13.12 9.49L13.12 9.49Q13.09 9.43 13.07 9.39L13.07 9.39L13.07 9.39Q12.97 9.18 12.90 9.03L12.90 9.03L12.90 9.03Q12.82 8.87 12.75 8.78L12.75 8.78L12.75 8.78Q12.58 8.55 12.39 8.49L12.39 8.49L12.39 8.49Q12.22 8.44 11.84 8.48L11.84 8.48L11.84 8.48Q11.62 8.50 11.43 8.51L11.43 8.51L11.43 8.51Q11.23 8.52 11.05 8.50L11.05 8.50L11.05 8.50Q10.66 8.48 10.47 8.76L10.47 8.76L10.45 8.78L10.45 8.79L10.45 8.79Q10.38 8.93 10.33 9.06L10.33 9.06L10.33 9.06Q10.29 9.19 10.23 9.32L10.23 9.32L10.08 9.54L10.08 9.54Q9.99 9.69 9.88 9.70L9.88 9.70L9.88 9.70Q9.84 9.72 9.75 9.65L9.75 9.65L9.75 9.65Q9.71 9.60 9.70 9.55L9.70 9.55L9.70 9.55Q9.69 9.49 9.70 9.43L9.70 9.43L9.70 9.43Q9.71 9.37 9.73 9.30L9.73 9.30L9.73 9.30Q9.75 9.24 9.78 9.19L9.78 9.19L9.94 8.85L9.94 8.85Q10.18 8.35 10.39 7.85L10.39 7.85L10.39 7.85Q10.60 7.34 10.83 6.83L10.83 6.83L10.83 6.83Q10.87 6.74 10.90 6.66L10.90 6.66L10.90 6.66Q10.93 6.58 10.96 6.51L10.96 6.51L10.96 6.51Q11.04 6.32 11.12 6.14L11.12 6.14L11.12 6.14Q11.19 5.95 11.29 5.76L11.29 5.76L11.39 5.61L11.39 5.61Q11.46 5.48 11.53 5.48L11.53 5.48L11.53 5.48Q11.60 5.46 11.71 5.59L11.71 5.59L11.71 5.59Q11.83 5.73 11.93 5.91L11.93 5.91L11.93 5.91Q12.04 6.10 12.11 6.26L12.11 6.26L12.11 6.26Q12.35 6.77 12.56 7.28L12.56 7.28L12.56 7.28Q12.77 7.79 13.01 8.28L13.01 8.28L13.01 8.28Q13.08 8.43 13.16 8.58L13.16 8.58L13.16 8.58Q13.23 8.74 13.31 8.88L13.31 8.88L13.31 8.88Q13.35 8.98 13.40 9.08L13.40 9.08L13.40 9.08Q13.44 9.17 13.48 9.27L13.48 9.27L13.48 9.27Q13.51 9.34 13.54 9.39L13.54 9.39L13.54 9.39Q13.56 9.44 13.56 9.47ZM12.21 7.56L12.21 7.56L12.21 7.56Q12.14 7.40 12.08 7.22L12.08 7.22L12.08 7.22Q12.01 7.05 11.92 6.88L11.92 6.88L11.92 6.88Q11.76 6.57 11.56 6.58L11.56 6.58L11.56 6.58Q11.48 6.58 11.43 6.62L11.43 6.62L11.43 6.62Q11.37 6.67 11.33 6.72L11.33 6.72L11.33 6.72Q11.29 6.78 11.25 6.85L11.25 6.85L11.25 6.85Q11.22 6.92 11.20 6.98L11.20 6.98L11.20 6.98Q11.12 7.18 11.05 7.40L11.05 7.40L11.05 7.40Q10.99 7.62 10.92 7.83L10.92 7.83L10.92 7.83Q10.88 7.98 10.94 8.05L10.94 8.05L10.94 8.05Q10.98 8.12 11.15 8.13L11.15 8.13L11.15 8.13Q11.30 8.14 11.42 8.15L11.42 8.15L11.42 8.15Q11.53 8.15 11.61 8.14L11.61 8.14L11.61 8.14Q11.76 8.14 12.00 8.10L12.00 8.10L12.00 8.10Q12.26 8.06 12.30 7.88L12.30 7.88L12.30 7.88Q12.33 7.77 12.28 7.69L12.28 7.69L12.28 7.69Q12.26 7.66 12.24 7.63L12.24 7.63L12.24 7.63Q12.22 7.59 12.21 7.56ZM18.04 9.06L18.04 9.06L18.04 9.06Q18.36 8.88 18.42 9.19L18.42 9.19L18.42 9.19Q18.44 9.32 18.28 9.44L18.28 9.44L18.28 9.44Q18.20 9.50 18.14 9.53L18.14 9.53L18.14 9.53Q18.07 9.57 18.02 9.59L18.02 9.59L18.02 9.59Q17.86 9.66 17.74 9.69L17.74 9.69L17.74 9.69Q17.61 9.72 17.51 9.73L17.51 9.73L17.51 9.73Q17.34 9.75 17.14 9.75L17.14 9.75L17.14 9.75Q16.94 9.75 16.72 9.71L16.72 9.71L16.72 9.71Q16.28 9.65 16.00 9.41L16.00 9.41L16.00 9.41Q15.75 9.19 15.59 8.89L15.59 8.89L15.59 8.89Q15.42 8.59 15.32 8.29L15.32 8.29L15.31 8.24L15.31 8.24Q15.24 8.05 15.26 7.80L15.26 7.80L15.26 7.80Q15.28 7.56 15.27 7.35L15.27 7.35L15.27 7.35Q15.27 7.18 15.28 7.06L15.28 7.06L15.28 7.06Q15.29 6.93 15.31 6.84L15.31 6.84L15.31 6.84Q15.36 6.67 15.53 6.38L15.53 6.38L15.53 6.38Q15.72 6.05 15.95 5.81L15.95 5.81L15.95 5.81Q16.18 5.57 16.58 5.49L16.58 5.49L16.58 5.49Q16.68 5.48 16.93 5.41L16.93 5.41L16.93 5.41Q17.01 5.39 17.10 5.37L17.10 5.37L17.10 5.37Q17.19 5.36 17.31 5.37L17.31 5.37L17.31 5.37Q17.40 5.37 17.52 5.39L17.52 5.39L17.52 5.39Q17.64 5.41 17.79 5.44L17.79 5.44L17.79 5.44Q17.90 5.48 18.13 5.58L18.13 5.58L18.13 5.58Q18.34 5.67 18.38 5.82L18.38 5.82L18.38 5.82Q18.40 5.88 18.37 5.94L18.37 5.94L18.37 5.94Q18.31 6.04 18.22 6.06L18.22 6.06L18.22 6.06Q18.18 6.08 18.10 6.06L18.10 6.06L18.10 6.06Q18.03 6.05 17.93 6.00L17.93 6.00L17.93 6.00Q17.79 5.93 17.68 5.88L17.68 5.88L17.68 5.88Q17.56 5.83 17.44 5.81L17.44 5.81L17.44 5.81Q17.32 5.78 17.20 5.79L17.20 5.79L17.20 5.79Q17.07 5.80 16.92 5.84L16.92 5.84L16.92 5.84Q16.56 5.95 16.42 6.02L16.42 6.02L16.42 6.02Q16.27 6.10 16.06 6.41L16.06 6.41L16.06 6.41Q15.90 6.65 15.81 6.91L15.81 6.91L15.81 6.91Q15.73 7.18 15.72 7.45L15.72 7.45L15.72 7.45Q15.70 7.73 15.76 8.00L15.76 8.00L15.76 8.00Q15.82 8.28 15.94 8.53L15.94 8.53L15.94 8.54L15.95 8.54L15.95 8.54Q16.24 9.08 16.79 9.22L16.79 9.22L16.79 9.22Q17.19 9.32 17.40 9.26L17.40 9.26L17.40 9.26Q17.47 9.26 17.52 9.24L17.52 9.24L17.52 9.24Q17.58 9.23 17.64 9.21L17.64 9.21L17.64 9.21Q17.87 9.17 18.04 9.06ZM23.28 5.75L23.28 5.75L23.28 5.75Q23.18 5.86 22.96 5.84L22.96 5.84L22.62 5.82L22.62 5.82Q22.52 5.82 22.42 5.81L22.42 5.81L22.42 5.81Q22.33 5.80 22.22 5.80L22.22 5.80L22.22 5.80Q22.02 5.80 21.92 5.89L21.92 5.89L21.92 5.89Q21.85 5.98 21.85 6.19L21.85 6.19L21.85 6.19Q21.85 6.28 21.86 6.37L21.86 6.37L21.86 6.37Q21.87 6.47 21.87 6.56L21.87 6.56L21.87 6.56Q21.88 6.79 21.88 6.96L21.88 6.96L21.88 6.96Q21.88 7.12 21.88 7.24L21.88 7.24L21.88 7.24Q21.88 7.59 21.84 7.94L21.84 7.94L21.84 7.94Q21.82 8.10 21.84 8.26L21.84 8.26L21.84 8.26Q21.86 8.43 21.87 8.59L21.87 8.59L21.87 8.59Q21.88 8.76 21.88 8.89L21.88 8.89L21.88 8.89Q21.88 9.02 21.88 9.11L21.88 9.11L21.88 9.11Q21.88 9.15 21.88 9.20L21.88 9.20L21.88 9.20Q21.88 9.26 21.88 9.35L21.88 9.35L21.88 9.35Q21.86 9.54 21.85 9.58L21.85 9.58L21.85 9.58Q21.76 9.73 21.62 9.69L21.62 9.69L21.62 9.69Q21.44 9.65 21.44 9.43L21.44 9.43L21.44 9.43Q21.43 9.22 21.45 9.01L21.45 9.01L21.45 9.01Q21.46 8.80 21.48 8.60L21.48 8.60L21.48 8.60Q21.50 8.36 21.48 8.11L21.48 8.11L21.48 8.11Q21.45 7.87 21.45 7.62L21.45 7.62L21.45 7.62Q21.45 7.40 21.47 7.17L21.47 7.17L21.47 7.17Q21.49 6.94 21.49 6.71L21.49 6.71L21.49 6.71Q21.49 6.27 21.35 6.08L21.35 6.08L21.35 6.08Q21.27 5.99 21.17 5.94L21.17 5.94L21.17 5.94Q21.06 5.89 20.93 5.87L20.93 5.87L20.93 5.87Q20.80 5.86 20.69 5.85L20.69 5.85L20.69 5.85Q20.58 5.84 20.47 5.84L20.47 5.84L20.47 5.84Q20.38 5.84 20.26 5.84L20.26 5.84L20.26 5.84Q20.13 5.84 20.06 5.80L20.06 5.80L20.06 5.80Q20.01 5.77 20.00 5.67L20.00 5.67L20.00 5.67Q19.98 5.59 20.02 5.54L20.02 5.54L20.02 5.54Q20.06 5.46 20.25 5.43L20.25 5.43L20.25 5.43Q20.28 5.43 20.33 5.43L20.33 5.43L20.33 5.43Q20.62 5.42 20.89 5.45L20.89 5.45L20.89 5.45Q21.16 5.48 21.44 5.46L21.44 5.46L21.44 5.46Q21.56 5.46 21.67 5.44L21.67 5.44L21.67 5.44Q21.79 5.43 21.91 5.43L21.91 5.43L21.91 5.43Q22.13 5.43 22.36 5.43L22.36 5.43L22.36 5.43Q22.59 5.43 22.82 5.42L22.82 5.42L22.82 5.42Q22.93 5.42 23.02 5.43L23.02 5.43L23.02 5.43Q23.11 5.43 23.17 5.46L23.17 5.46L23.17 5.46Q23.38 5.61 23.28 5.75ZM30.69 5.56L30.69 5.56L30.69 5.56Q30.79 5.83 30.47 5.85L30.47 5.85L30.47 5.85Q30.06 5.88 29.65 5.86L29.65 5.86L29.65 5.86Q29.23 5.84 28.82 5.87L28.82 5.87L28.82 5.87Q28.66 5.89 28.44 5.85L28.44 5.85L28.44 5.85Q28.22 5.82 28.11 5.94L28.11 5.94L28.11 5.94Q28.02 6.03 28.03 6.17L28.03 6.17L28.03 6.17Q28.04 6.17 28.04 6.21L28.04 6.21L28.04 6.21Q28.04 6.24 28.04 6.33L28.04 6.33L28.04 6.33Q28.03 6.42 28.03 6.57L28.03 6.57L28.03 6.57Q28.01 6.83 28.11 6.94L28.11 6.94L28.11 6.94Q28.21 7.06 28.39 7.06L28.39 7.06L28.39 7.06Q28.50 7.07 28.65 7.07L28.65 7.07L28.65 7.07Q28.81 7.08 29.01 7.09L29.01 7.09L29.01 7.09Q29.04 7.10 29.12 7.09L29.12 7.09L29.12 7.09Q29.20 7.08 29.34 7.08L29.34 7.08L29.34 7.08Q29.42 7.07 29.54 7.06L29.54 7.06L29.54 7.06Q29.67 7.05 29.74 7.10L29.74 7.10L29.74 7.10Q29.81 7.15 29.81 7.27L29.81 7.27L29.81 7.27Q29.82 7.36 29.78 7.40L29.78 7.40L29.78 7.40Q29.72 7.47 29.52 7.47L29.52 7.47L29.52 7.47Q29.43 7.47 29.34 7.46L29.34 7.46L29.34 7.46Q29.24 7.46 29.16 7.45L29.16 7.45L29.16 7.45Q28.94 7.44 28.73 7.45L28.73 7.45L28.73 7.45Q28.64 7.46 28.54 7.47L28.54 7.47L28.54 7.47Q28.44 7.47 28.36 7.47L28.36 7.47L28.36 7.47Q28.14 7.47 28.07 7.55L28.07 7.55L28.07 7.55Q28.02 7.62 28.02 7.85L28.02 7.85L28.02 7.85Q28.02 8.16 28.03 8.46L28.03 8.46L28.03 8.46Q28.04 8.76 28.05 9.05L28.05 9.05L28.05 9.05Q28.06 9.11 28.06 9.18L28.06 9.18L28.06 9.18Q28.05 9.26 28.05 9.37L28.05 9.37L28.05 9.37Q28.03 9.57 27.96 9.64L27.96 9.64L27.96 9.64Q27.90 9.70 27.83 9.70L27.83 9.70L27.83 9.70Q27.77 9.71 27.72 9.68L27.72 9.68L27.72 9.68Q27.67 9.65 27.63 9.58L27.63 9.58L27.63 9.58Q27.60 9.52 27.59 9.45L27.59 9.45L27.59 9.45Q27.58 9.35 27.58 9.23L27.58 9.23L27.58 9.23Q27.58 9.11 27.60 8.96L27.60 8.96L27.60 8.96Q27.60 8.85 27.61 8.74L27.61 8.74L27.61 8.74Q27.61 8.62 27.61 8.50L27.61 8.50L27.61 8.50Q27.62 8.37 27.62 8.26L27.62 8.26L27.62 8.26Q27.62 8.16 27.64 8.08L27.64 8.08L27.64 8.08Q27.65 7.90 27.63 7.72L27.63 7.72L27.63 7.72Q27.61 7.53 27.61 7.35L27.61 7.35L27.61 6.59L27.61 6.59Q27.61 6.38 27.60 6.17L27.60 6.17L27.60 6.17Q27.59 5.95 27.59 5.74L27.59 5.74L27.59 5.71L27.59 5.71Q27.63 5.54 27.79 5.46L27.79 5.46L27.79 5.46Q27.89 5.41 28.10 5.41L28.10 5.41L28.10 5.41Q28.21 5.41 28.31 5.42L28.31 5.42L28.31 5.42Q28.42 5.42 28.54 5.42L28.54 5.42L28.54 5.42Q28.99 5.42 29.44 5.41L29.44 5.41L29.44 5.41Q29.88 5.40 30.33 5.41L30.33 5.41L30.33 5.41Q30.40 5.42 30.46 5.42L30.46 5.42L30.46 5.42Q30.52 5.43 30.58 5.44L30.58 5.44L30.58 5.44Q30.65 5.48 30.69 5.56ZM33.65 9.69L33.65 9.69L33.65 9.69Q33.52 9.65 33.38 9.58L33.38 9.58L33.38 9.58Q33.24 9.52 33.10 9.43L33.10 9.43L33.10 9.43Q32.97 9.34 32.85 9.24L32.85 9.24L32.85 9.24Q32.74 9.13 32.66 9.01L32.66 9.01L32.66 9.01Q32.55 8.84 32.50 8.66L32.50 8.66L32.50 8.66Q32.45 8.48 32.36 8.29L32.36 8.29L32.36 8.29Q32.29 8.13 32.29 7.96L32.29 7.96L32.29 7.96Q32.28 7.88 32.27 7.79L32.27 7.79L32.27 7.79Q32.26 7.70 32.26 7.62L32.26 7.62L32.26 7.62Q32.25 7.54 32.25 7.48L32.25 7.48L32.25 7.48Q32.25 7.42 32.25 7.38L32.25 7.38L32.25 7.38Q32.25 7.25 32.26 7.11L32.26 7.11L32.26 7.11Q32.28 6.97 32.31 6.82L32.31 6.82L32.31 6.82Q32.32 6.77 32.35 6.69L32.35 6.69L32.35 6.69Q32.42 6.49 32.53 6.31L32.53 6.31L32.53 6.31Q32.63 6.13 32.77 5.97L32.77 5.97L32.77 5.97Q33.04 5.67 33.52 5.43L33.52 5.43L33.52 5.43Q33.74 5.34 33.97 5.35L33.97 5.35L33.97 5.35Q34.13 5.36 34.28 5.39L34.28 5.39L34.28 5.39Q34.40 5.41 34.49 5.42L34.49 5.42L34.49 5.42Q34.58 5.43 34.65 5.44L34.65 5.44L34.65 5.44Q35.18 5.50 35.58 5.91L35.58 5.91L35.58 5.91Q35.67 6.00 35.75 6.10L35.75 6.10L35.75 6.10Q35.83 6.21 35.90 6.33L35.90 6.33L35.94 6.38L35.94 6.38Q35.94 6.41 35.95 6.42L35.95 6.42L35.95 6.42Q35.96 6.43 35.96 6.45L35.96 6.45L35.96 6.45Q36.08 6.72 36.18 7.13L36.18 7.13L36.18 7.13Q36.26 7.51 36.20 7.83L36.20 7.83L36.20 7.83Q36.16 8.02 36.10 8.19L36.10 8.19L36.10 8.19Q36.04 8.36 35.99 8.53L35.99 8.53L35.99 8.53Q35.72 9.45 34.79 9.69L34.79 9.69L34.73 9.70L34.73 9.70Q34.68 9.71 34.60 9.73L34.60 9.73L34.60 9.73Q34.51 9.74 34.41 9.75L34.41 9.75L34.41 9.75Q34.23 9.78 34.04 9.76L34.04 9.76L34.04 9.76Q33.85 9.75 33.65 9.69ZM34.35 5.78L34.34 5.78L34.34 5.78Q33.97 5.78 33.68 5.87L33.68 5.87L33.68 5.87Q33.38 5.95 33.14 6.19L33.14 6.19L33.14 6.19Q32.81 6.52 32.72 6.92L32.72 6.92L32.72 6.92Q32.63 7.32 32.73 7.81L32.73 7.81L32.79 8.15L32.79 8.15Q32.81 8.24 32.82 8.30L32.82 8.30L32.82 8.30Q32.83 8.36 32.84 8.37L32.84 8.37L32.84 8.37Q32.88 8.52 33.00 8.66L33.00 8.66L33.00 8.66Q33.13 8.80 33.23 8.90L33.23 8.90L33.23 8.90Q33.28 8.96 33.34 9.02L33.34 9.02L33.34 9.02Q33.39 9.08 33.46 9.13L33.46 9.13L33.46 9.13Q33.56 9.21 33.80 9.29L33.80 9.29L33.80 9.29L33.80 9.29Q33.93 9.32 34.09 9.31L34.09 9.31L34.09 9.31Q34.25 9.30 34.45 9.26L34.45 9.26L34.45 9.26Q34.55 9.23 34.65 9.22L34.65 9.22L34.65 9.22Q34.75 9.21 34.85 9.18L34.85 9.18L34.85 9.18Q35.10 9.12 35.27 8.91L35.27 8.91L35.28 8.91L35.28 8.90L35.28 8.90Q35.39 8.77 35.46 8.57L35.46 8.57L35.46 8.57Q35.53 8.37 35.57 8.32L35.57 8.32L35.57 8.32Q35.91 7.65 35.67 6.87L35.67 6.87L35.66 6.86L35.66 6.86Q35.64 6.79 35.61 6.72L35.61 6.72L35.61 6.72Q35.58 6.65 35.53 6.58L35.53 6.58L35.53 6.58Q35.27 6.18 34.90 6.00L34.90 6.00L34.90 6.00Q34.88 6.00 34.84 5.97L34.84 5.97L34.84 5.97Q34.79 5.94 34.70 5.89L34.70 5.89L34.70 5.89Q34.58 5.81 34.35 5.78L34.35 5.78ZM40.74 5.67L40.74 5.67L40.74 5.67Q40.89 5.82 40.97 5.99L40.97 5.99L40.97 5.99Q41.06 6.16 41.15 6.34L41.15 6.34L41.15 6.34Q41.24 6.54 41.20 6.74L41.20 6.74L41.20 6.74Q41.17 6.94 40.98 7.13L40.98 7.13L40.98 7.13Q40.84 7.28 40.50 7.37L40.50 7.37L40.50 7.37Q40.38 7.40 40.24 7.44L40.24 7.44L40.24 7.44Q40.10 7.48 40.04 7.60L40.04 7.60L40.04 7.60Q40.00 7.72 40.07 7.84L40.07 7.84L40.07 7.84Q40.13 7.97 40.17 8.05L40.17 8.05L40.17 8.05Q40.22 8.13 40.24 8.18L40.24 8.18L40.24 8.18Q40.28 8.24 40.33 8.33L40.33 8.33L40.33 8.33Q40.39 8.42 40.46 8.52L40.46 8.52L40.46 8.52Q40.62 8.74 40.79 8.93L40.79 8.93L40.79 8.93Q40.97 9.13 41.15 9.30L41.15 9.30L41.18 9.34L41.18 9.34Q41.33 9.49 41.19 9.63L41.19 9.63L41.19 9.63Q41.03 9.79 40.89 9.64L40.89 9.64L40.89 9.64Q40.77 9.52 40.68 9.43L40.68 9.43L40.68 9.43Q40.59 9.34 40.52 9.26L40.52 9.26L40.52 9.26Q40.35 9.05 40.21 8.83L40.21 8.83L40.21 8.83Q40.11 8.67 40.00 8.53L40.00 8.53L40.00 8.53Q39.89 8.39 39.80 8.23L39.80 8.23L39.80 8.23Q39.53 7.74 39.12 7.58L39.12 7.58L39.12 7.58Q38.69 7.42 38.49 7.70L38.49 7.70L38.49 7.70Q38.43 7.80 38.43 7.92L38.43 7.92L38.43 9.40L38.43 9.49L38.43 9.49Q38.43 9.69 38.22 9.70L38.22 9.70L38.22 9.70Q38.01 9.69 38.01 9.44L38.01 9.44L38.01 9.44Q38.01 9.28 38.02 9.12L38.02 9.12L38.02 9.12Q38.03 8.95 38.04 8.76L38.04 8.76L38.04 8.76Q38.04 8.63 38.03 8.49L38.03 8.49L38.03 8.49Q38.02 8.35 38.02 8.22L38.02 8.22L38.02 8.22Q38.02 8.09 38.03 7.96L38.03 7.96L38.03 7.96Q38.04 7.83 38.04 7.70L38.04 7.70L38.04 7.70Q38.04 7.40 38.01 7.07L38.01 7.07L38.01 7.07Q38.01 6.84 38.02 6.61L38.02 6.61L38.02 6.61Q38.04 6.38 38.03 6.14L38.03 6.14L38.03 6.14Q38.02 6.02 38.02 5.86L38.02 5.86L38.02 5.86Q38.02 5.71 38.06 5.58L38.06 5.58L38.06 5.58Q38.19 5.42 38.64 5.42L38.64 5.42L38.86 5.42L38.86 5.42Q39.10 5.42 39.35 5.44L39.35 5.44L39.35 5.44Q39.60 5.46 39.85 5.45L39.85 5.45L39.85 5.45Q40.41 5.42 40.74 5.67ZM38.82 7.15L38.82 7.15L38.82 7.15Q39.08 7.16 39.28 7.16L39.28 7.16L39.28 7.16Q39.48 7.16 39.61 7.14L39.61 7.14L39.61 7.14Q39.74 7.13 39.90 7.11L39.90 7.11L39.90 7.11Q40.07 7.09 40.26 7.05L40.26 7.05L40.26 7.05Q40.65 6.97 40.76 6.69L40.76 6.69L40.76 6.69Q40.81 6.59 40.80 6.47L40.80 6.47L40.80 6.47Q40.78 6.34 40.72 6.24L40.72 6.24L40.72 6.24Q40.65 6.14 40.55 6.07L40.55 6.07L40.55 6.07Q40.46 6.00 40.34 5.94L40.34 5.94L40.34 5.94Q40.22 5.89 40.11 5.87L40.11 5.87L40.11 5.87Q39.83 5.82 39.54 5.83L39.54 5.83L39.54 5.83Q39.26 5.84 38.97 5.82L38.97 5.82L38.97 5.82Q38.92 5.82 38.87 5.82L38.87 5.82L38.87 5.82Q38.81 5.82 38.76 5.82L38.76 5.82L38.76 5.82Q38.62 5.81 38.54 5.89L38.54 5.89L38.54 5.89Q38.48 5.96 38.49 6.08L38.49 6.08L38.49 6.08Q38.50 6.12 38.50 6.23L38.50 6.23L38.50 6.23Q38.49 6.33 38.48 6.43L38.48 6.43L38.48 6.43Q38.46 6.52 38.45 6.62L38.45 6.62L38.45 6.62Q38.41 6.88 38.51 7.01L38.51 7.01L38.51 7.01Q38.60 7.14 38.82 7.15ZM46.59 5.56L46.59 5.56L46.59 5.56Q46.66 5.54 46.81 5.58L46.81 5.58L46.81 5.58Q46.97 5.62 47.00 5.68L47.00 5.68L47.00 5.68Q47.00 5.69 47.01 5.69L47.01 5.69L47.01 5.69Q47.03 5.89 47.03 6.28L47.03 6.28L47.03 6.79L47.03 6.79Q47.04 7 47.04 7.19L47.04 7.19L47.04 7.19Q47.05 7.38 47.04 7.58L47.04 7.58L47.04 7.58Q47.02 7.78 47.01 7.97L47.01 7.97L47.01 7.97Q47.00 8.16 47.01 8.35L47.01 8.35L47.01 8.35Q47.02 8.52 47.03 8.68L47.03 8.68L47.03 8.68Q47.04 8.84 47.03 9.00L47.03 9.00L47.01 9.32L47.01 9.32Q47.00 9.55 46.96 9.60L46.96 9.60L46.96 9.60Q46.89 9.71 46.79 9.71L46.79 9.71L46.79 9.71Q46.57 9.69 46.56 9.39L46.56 9.39L46.56 9.39Q46.54 8.95 46.56 8.51L46.56 8.51L46.56 8.51Q46.59 8.07 46.55 7.62L46.55 7.62L46.53 7.32L46.53 7.32Q46.52 7.10 46.35 7.08L46.35 7.08L46.35 7.08Q46.28 7.08 46.23 7.10L46.23 7.10L46.23 7.10Q46.18 7.13 46.15 7.18L46.15 7.18L46.15 7.18Q46.12 7.23 46.09 7.28L46.09 7.28L46.09 7.28Q46.07 7.34 46.05 7.39L46.05 7.39L46.05 7.39Q46.00 7.53 45.95 7.64L45.95 7.64L45.95 7.64Q45.91 7.75 45.88 7.83L45.88 7.83L45.88 7.83Q45.81 7.97 45.73 8.12L45.73 8.12L45.73 8.12Q45.64 8.26 45.56 8.40L45.56 8.40L45.56 8.40Q45.49 8.55 45.41 8.69L45.41 8.69L45.41 8.69Q45.34 8.82 45.27 8.96L45.27 8.96L45.27 8.96Q45.23 9.04 45.02 9.03L45.02 9.03L45.02 9.03Q44.88 9.03 44.81 8.95L44.81 8.95L44.81 8.95Q44.75 8.89 44.70 8.77L44.70 8.77L44.70 8.77Q44.64 8.66 44.56 8.49L44.56 8.49L44.56 8.49Q44.51 8.37 44.46 8.29L44.46 8.29L44.46 8.29Q44.42 8.20 44.39 8.15L44.39 8.15L44.39 8.15Q44.35 8.10 44.30 8.00L44.30 8.00L44.30 8.00Q44.26 7.90 44.18 7.74L44.18 7.74L44.00 7.35L44.00 7.35Q43.96 7.28 43.94 7.25L43.94 7.25L43.94 7.25Q43.91 7.21 43.91 7.20L43.91 7.20L43.91 7.20Q43.80 7.07 43.67 7.10L43.67 7.10L43.67 7.10Q43.50 7.12 43.50 7.40L43.50 7.40L43.50 7.40Q43.50 7.84 43.51 8.23L43.51 8.23L43.51 8.23Q43.52 8.61 43.53 8.96L43.53 8.96L43.53 8.96Q43.53 9.01 43.53 9.10L43.53 9.10L43.53 9.10Q43.53 9.18 43.52 9.30L43.52 9.30L43.52 9.30Q43.51 9.55 43.47 9.61L43.47 9.61L43.47 9.61Q43.40 9.71 43.26 9.70L43.26 9.70L43.26 9.70Q43.08 9.69 43.08 9.43L43.08 9.43L43.08 9.43Q43.08 9.13 43.07 8.82L43.07 8.82L43.07 8.82Q43.06 8.51 43.05 8.18L43.05 8.18L43.05 8.18Q43.05 8.03 43.05 7.90L43.05 7.90L43.05 7.90Q43.05 7.77 43.07 7.68L43.07 7.68L43.07 7.68Q43.09 7.51 43.09 7.38L43.09 7.38L43.09 7.38Q43.09 7.25 43.09 7.16L43.09 7.16L43.09 7.16Q43.08 7.05 43.07 6.93L43.07 6.93L43.07 6.93Q43.05 6.80 43.03 6.66L43.03 6.66L43.03 6.66Q43.01 6.46 43.04 6.18L43.04 6.18L43.04 6.18Q43.07 5.89 43.12 5.70L43.12 5.70L43.12 5.70Q43.14 5.62 43.16 5.58L43.16 5.58L43.16 5.58Q43.35 5.38 43.54 5.63L43.54 5.63L43.54 5.63Q43.61 5.73 43.68 5.84L43.68 5.84L43.68 5.84Q43.75 5.95 43.83 6.06L43.83 6.06L43.83 6.06Q43.93 6.22 44.02 6.41L44.02 6.41L44.02 6.41Q44.10 6.60 44.18 6.77L44.18 6.77L44.18 6.77Q44.26 6.95 44.33 7.09L44.33 7.09L44.33 7.09Q44.39 7.22 44.45 7.30L44.45 7.30L44.47 7.34L44.47 7.34Q44.55 7.46 44.60 7.58L44.60 7.58L44.60 7.58Q44.66 7.70 44.71 7.81L44.71 7.81L44.71 7.81Q44.86 8.13 45.02 8.14L45.02 8.14L45.02 8.14Q45.18 8.14 45.25 8.00L45.25 8.00L45.25 8.00Q45.28 7.93 45.31 7.86L45.31 7.86L45.31 7.86Q45.34 7.79 45.36 7.73L45.36 7.73L45.36 7.73Q45.41 7.62 45.48 7.49L45.48 7.49L45.48 7.49Q45.54 7.36 45.62 7.23L45.62 7.23L45.62 7.23Q45.76 6.99 45.91 6.75L45.91 6.75L45.91 6.75Q46.06 6.51 46.18 6.24L46.18 6.24L46.18 6.24Q46.22 6.16 46.27 6.06L46.27 6.06L46.27 6.06Q46.33 5.97 46.39 5.87L46.39 5.87L46.52 5.67L46.52 5.67Q46.53 5.65 46.54 5.63L46.54 5.63L46.54 5.63Q46.56 5.60 46.59 5.56ZM55.42 9.47L55.42 9.47L55.42 9.47Q55.42 9.65 55.28 9.69L55.28 9.69L55.28 9.69Q55.15 9.75 55.06 9.61L55.06 9.61L55.06 9.61Q55.01 9.54 54.98 9.49L54.98 9.49L54.98 9.49Q54.95 9.43 54.93 9.39L54.93 9.39L54.93 9.39Q54.83 9.18 54.76 9.03L54.76 9.03L54.76 9.03Q54.68 8.87 54.61 8.78L54.61 8.78L54.61 8.78Q54.44 8.55 54.24 8.49L54.24 8.49L54.24 8.49Q54.07 8.44 53.70 8.48L53.70 8.48L53.70 8.48Q53.48 8.50 53.28 8.51L53.28 8.51L53.28 8.51Q53.09 8.52 52.91 8.50L52.91 8.50L52.91 8.50Q52.51 8.48 52.32 8.76L52.32 8.76L52.31 8.78L52.30 8.79L52.30 8.79Q52.23 8.93 52.19 9.06L52.19 9.06L52.19 9.06Q52.14 9.19 52.08 9.32L52.08 9.32L51.94 9.54L51.94 9.54Q51.84 9.69 51.74 9.70L51.74 9.70L51.74 9.70Q51.69 9.72 51.60 9.65L51.60 9.65L51.60 9.65Q51.56 9.60 51.55 9.55L51.55 9.55L51.55 9.55Q51.54 9.49 51.55 9.43L51.55 9.43L51.55 9.43Q51.56 9.37 51.59 9.30L51.59 9.30L51.59 9.30Q51.61 9.24 51.63 9.19L51.63 9.19L51.80 8.85L51.80 8.85Q52.04 8.35 52.24 7.85L52.24 7.85L52.24 7.85Q52.45 7.34 52.68 6.83L52.68 6.83L52.68 6.83Q52.73 6.74 52.76 6.66L52.76 6.66L52.76 6.66Q52.79 6.58 52.82 6.51L52.82 6.51L52.82 6.51Q52.90 6.32 52.97 6.14L52.97 6.14L52.97 6.14Q53.05 5.95 53.14 5.76L53.14 5.76L53.25 5.61L53.25 5.61Q53.32 5.48 53.39 5.48L53.39 5.48L53.39 5.48Q53.46 5.46 53.57 5.59L53.57 5.59L53.57 5.59Q53.68 5.73 53.79 5.91L53.79 5.91L53.79 5.91Q53.89 6.10 53.97 6.26L53.97 6.26L53.97 6.26Q54.21 6.77 54.42 7.28L54.42 7.28L54.42 7.28Q54.63 7.79 54.87 8.28L54.87 8.28L54.87 8.28Q54.94 8.43 55.01 8.58L55.01 8.58L55.01 8.58Q55.08 8.74 55.17 8.88L55.17 8.88L55.17 8.88Q55.21 8.98 55.25 9.08L55.25 9.08L55.25 9.08Q55.30 9.17 55.34 9.27L55.34 9.27L55.34 9.27Q55.37 9.34 55.39 9.39L55.39 9.39L55.39 9.39Q55.41 9.44 55.42 9.47ZM54.07 7.56L54.07 7.56L54.07 7.56Q54.00 7.40 53.93 7.22L53.93 7.22L53.93 7.22Q53.87 7.05 53.78 6.88L53.78 6.88L53.78 6.88Q53.61 6.57 53.42 6.58L53.42 6.58L53.42 6.58Q53.34 6.58 53.28 6.62L53.28 6.62L53.28 6.62Q53.22 6.67 53.18 6.72L53.18 6.72L53.18 6.72Q53.14 6.78 53.11 6.85L53.11 6.85L53.11 6.85Q53.07 6.92 53.05 6.98L53.05 6.98L53.05 6.98Q52.98 7.18 52.91 7.40L52.91 7.40L52.91 7.40Q52.84 7.62 52.78 7.83L52.78 7.83L52.78 7.83Q52.73 7.98 52.79 8.05L52.79 8.05L52.79 8.05Q52.83 8.12 53.01 8.13L53.01 8.13L53.01 8.13Q53.16 8.14 53.27 8.15L53.27 8.15L53.27 8.15Q53.39 8.15 53.46 8.14L53.46 8.14L53.46 8.14Q53.61 8.14 53.86 8.10L53.86 8.10L53.86 8.10Q54.11 8.06 54.16 7.88L54.16 7.88L54.16 7.88Q54.18 7.77 54.13 7.69L54.13 7.69L54.13 7.69Q54.12 7.66 54.10 7.63L54.10 7.63L54.10 7.63Q54.07 7.59 54.07 7.56ZM59.79 9.34L59.79 9.34L59.79 9.34Q59.87 9.40 59.87 9.50L59.87 9.50L59.87 9.50Q59.88 9.72 59.60 9.72L59.60 9.72L59.60 9.72Q59.11 9.72 58.62 9.71L58.62 9.71L58.62 9.71Q58.13 9.69 57.63 9.73L57.63 9.73L57.63 9.73Q57.24 9.75 57.16 9.52L57.16 9.52L57.16 9.52Q57.12 9.41 57.12 9.19L57.12 9.19L57.12 9.19Q57.13 9.08 57.13 8.99L57.13 8.99L57.13 8.99Q57.13 8.91 57.13 8.85L57.13 8.85L57.13 8.85Q57.14 8.70 57.15 8.53L57.15 8.53L57.15 8.53Q57.16 8.37 57.16 8.22L57.16 8.22L57.16 8.22Q57.14 7.89 57.13 7.58L57.13 7.58L57.13 7.58Q57.11 7.27 57.12 6.94L57.12 6.94L57.12 6.94Q57.13 6.78 57.13 6.63L57.13 6.63L57.13 6.63Q57.14 6.47 57.14 6.31L57.14 6.31L57.14 6.31Q57.15 6.11 57.15 5.94L57.15 5.94L57.15 5.94Q57.14 5.78 57.13 5.64L57.13 5.64L57.13 5.64Q57.11 5.46 57.30 5.42L57.30 5.42L57.30 5.42Q57.57 5.37 57.59 5.74L57.59 5.74L57.59 5.74Q57.60 5.89 57.61 6.04L57.61 6.04L57.61 6.04Q57.61 6.19 57.63 6.32L57.63 6.32L57.63 6.50L57.60 6.76L57.60 6.76Q57.59 6.87 57.58 6.98L57.58 6.98L57.58 6.98Q57.57 7.09 57.56 7.19L57.56 7.19L57.56 7.19Q57.54 7.45 57.54 7.65L57.54 7.65L57.54 7.65Q57.54 7.84 57.55 7.97L57.55 7.97L57.55 7.97Q57.57 8.13 57.57 8.31L57.57 8.31L57.57 8.31Q57.57 8.49 57.56 8.69L57.56 8.69L57.56 8.69Q57.54 8.99 57.64 9.08L57.64 9.08L57.64 9.08Q57.72 9.17 57.96 9.19L57.96 9.19L57.96 9.19Q58.08 9.21 58.20 9.21L58.20 9.21L58.20 9.21Q58.32 9.22 58.45 9.24L58.45 9.24L58.45 9.24Q58.63 9.26 58.82 9.24L58.82 9.24L58.82 9.24Q59.01 9.22 59.21 9.25L59.21 9.25L59.21 9.25Q59.33 9.26 59.50 9.27L59.50 9.27L59.50 9.27Q59.68 9.28 59.79 9.34ZM64.00 9.34L64.00 9.34L64.00 9.34Q64.09 9.40 64.09 9.50L64.09 9.50L64.09 9.50Q64.09 9.72 63.82 9.72L63.82 9.72L63.82 9.72Q63.33 9.72 62.84 9.71L62.84 9.71L62.84 9.71Q62.34 9.69 61.85 9.73L61.85 9.73L61.85 9.73Q61.46 9.75 61.38 9.52L61.38 9.52L61.38 9.52Q61.34 9.41 61.34 9.19L61.34 9.19L61.34 9.19Q61.35 9.08 61.35 8.99L61.35 8.99L61.35 8.99Q61.35 8.91 61.35 8.85L61.35 8.85L61.35 8.85Q61.36 8.70 61.37 8.53L61.37 8.53L61.37 8.53Q61.38 8.37 61.37 8.22L61.37 8.22L61.37 8.22Q61.36 7.89 61.35 7.58L61.35 7.58L61.35 7.58Q61.33 7.27 61.34 6.94L61.34 6.94L61.34 6.94Q61.35 6.78 61.35 6.63L61.35 6.63L61.35 6.63Q61.36 6.47 61.36 6.31L61.36 6.31L61.36 6.31Q61.37 6.11 61.36 5.94L61.36 5.94L61.36 5.94Q61.36 5.78 61.35 5.64L61.35 5.64L61.35 5.64Q61.33 5.46 61.52 5.42L61.52 5.42L61.52 5.42Q61.78 5.37 61.80 5.74L61.80 5.74L61.80 5.74Q61.82 5.89 61.82 6.04L61.82 6.04L61.82 6.04Q61.83 6.19 61.84 6.32L61.84 6.32L61.84 6.50L61.82 6.76L61.82 6.76Q61.80 6.87 61.79 6.98L61.79 6.98L61.79 6.98Q61.78 7.09 61.78 7.19L61.78 7.19L61.78 7.19Q61.76 7.45 61.76 7.65L61.76 7.65L61.76 7.65Q61.76 7.84 61.77 7.97L61.77 7.97L61.77 7.97Q61.78 8.13 61.79 8.31L61.79 8.31L61.79 8.31Q61.79 8.49 61.78 8.69L61.78 8.69L61.78 8.69Q61.76 8.99 61.86 9.08L61.86 9.08L61.86 9.08Q61.93 9.17 62.18 9.19L62.18 9.19L62.18 9.19Q62.30 9.21 62.42 9.21L62.42 9.21L62.42 9.21Q62.54 9.22 62.67 9.24L62.67 9.24L62.67 9.24Q62.85 9.26 63.04 9.24L63.04 9.24L63.04 9.24Q63.23 9.22 63.42 9.25L63.42 9.25L63.42 9.25Q63.55 9.26 63.72 9.27L63.72 9.27L63.72 9.27Q63.90 9.28 64.00 9.34ZM67.16 5.46L67.16 5.46L67.16 5.46Q67.45 5.45 67.29 5.76L67.29 5.76L67.29 5.76Q67.26 5.82 67.20 5.91L67.20 5.91L67.20 5.91Q67.14 6.00 67.05 6.12L67.05 6.12L67.05 6.12Q66.85 6.38 66.74 6.60L66.74 6.60L66.74 6.60Q66.64 6.80 66.50 7.01L66.50 7.01L66.50 7.01Q66.37 7.21 66.21 7.42L66.21 7.42L66.21 7.43L66.21 7.43Q66.13 7.55 66.09 7.67L66.09 7.67L66.09 7.67Q66.06 7.78 66.04 7.88L66.04 7.88L66.04 7.88Q66.03 8.00 66.05 8.12L66.05 8.12L66.05 8.12Q66.06 8.24 66.06 8.35L66.06 8.35L66.06 8.35Q66.06 8.52 66.05 8.67L66.05 8.67L66.05 8.67Q66.04 8.83 66.06 8.99L66.06 8.99L66.06 8.99Q66.07 9.05 66.08 9.13L66.08 9.13L66.08 9.13Q66.08 9.21 66.09 9.32L66.09 9.32L66.09 9.32Q66.10 9.54 66.02 9.64L66.02 9.64L66.02 9.64Q65.97 9.69 65.87 9.70L65.87 9.70L65.87 9.70Q65.65 9.72 65.63 9.38L65.63 9.38L65.63 9.38Q65.62 9.07 65.65 8.75L65.65 8.75L65.65 8.75Q65.67 8.43 65.69 8.11L65.69 8.11L65.69 8.11Q65.71 7.85 65.60 7.68L65.60 7.68L65.60 7.68Q65.55 7.61 65.50 7.51L65.50 7.51L65.50 7.51Q65.45 7.42 65.38 7.31L65.38 7.31L65.38 7.31Q65.30 7.19 65.23 7.07L65.23 7.07L65.23 7.07Q65.16 6.95 65.08 6.83L65.08 6.83L65.08 6.83Q65.00 6.70 64.95 6.60L64.95 6.60L64.95 6.60Q64.89 6.50 64.86 6.43L64.86 6.43L64.86 6.43Q64.80 6.34 64.77 6.27L64.77 6.27L64.77 6.27Q64.74 6.20 64.71 6.17L64.71 6.17L64.71 6.17Q64.68 6.13 64.64 6.08L64.64 6.08L64.64 6.08Q64.60 6.02 64.54 5.95L64.54 5.95L64.54 5.95Q64.37 5.74 64.37 5.63L64.37 5.63L64.37 5.63Q64.36 5.57 64.40 5.50L64.40 5.50L64.40 5.50Q64.59 5.28 64.76 5.53L64.76 5.53L64.76 5.53Q64.91 5.74 65.02 5.96L65.02 5.96L65.02 5.96Q65.13 6.19 65.25 6.40L65.25 6.40L65.25 6.40Q65.34 6.56 65.42 6.66L65.42 6.66L65.42 6.66Q65.49 6.77 65.56 6.83L65.56 6.83L65.56 6.83Q65.72 7.01 65.91 6.97L65.91 6.97L65.91 6.97Q66.07 6.94 66.22 6.72L66.22 6.72L66.22 6.72Q66.28 6.64 66.34 6.55L66.34 6.55L66.34 6.55Q66.39 6.46 66.45 6.37L66.45 6.37L66.45 6.37Q66.51 6.30 66.55 6.22L66.55 6.22L66.55 6.22Q66.59 6.13 66.63 6.04L66.63 6.04L66.63 6.04Q66.66 5.95 66.71 5.87L66.71 5.87L66.71 5.87Q66.75 5.78 66.80 5.69L66.80 5.69L66.80 5.69Q66.95 5.48 67.16 5.46Z"></path></g><defs data-v-fde0c5aa=""><linearGradient data-v-fde0c5aa="" gradientTransform="rotate(25)" id="9520bd7d-33ea-4897-adf9-c876a33a941a" x1="0%" y1="0%" x2="100%" y2="0%"><stop data-v-fde0c5aa="" offset="0%" stop-color="#000A68" stop-opacity="1"></stop><stop data-v-fde0c5aa="" offset="100%" stop-color="#00C4EE" stop-opacity="1"></stop></linearGradient></defs><g data-v-fde0c5aa="" id="11908bd4-dd27-4d69-8098-4c48b52be071" stroke="none" fill="url(#9520bd7d-33ea-4897-adf9-c876a33a941a)" transform="matrix(0.283005, 0, 0, 0.283005, 0.4592, -4.104)"><path d="M47.124 22.019c-4.22-2.129-8.917-3.44-13.957-3.44-17.235 0-31.256 14.023-31.256 31.256S15.932 81.09 33.167 81.09c17.234 0 31.255-14.023 31.255-31.256 0-7.562-2.809-14.412-7.295-19.824-1.896.924-3.672 2.046-5.215 3.453 3.846 4.398 6.256 10.083 6.256 16.371 0 13.793-11.214 25.008-25.001 25.008-13.788 0-25.006-11.215-25.006-25.008 0-13.787 11.218-25.002 25.006-25.002 3.122 0 6.081.643 8.839 1.691a33.903 33.903 0 0 1 5.118-4.504"></path><path d="M97.91 49.834c0-17.233-14.023-31.256-31.256-31.256-17.235 0-31.256 14.022-31.256 31.256 0 7.572 2.815 14.43 7.312 19.845a22.095 22.095 0 0 0 5.183-3.487c-3.837-4.396-6.244-10.075-6.244-16.357 0-13.788 11.217-25.003 25.005-25.003s25.003 11.215 25.003 25.003c0 13.792-11.215 25.007-25.003 25.007-3.071 0-5.98-.632-8.701-1.649a34.216 34.216 0 0 1-5.161 4.511c4.197 2.097 8.861 3.388 13.862 3.388C83.887 81.09 97.91 67.067 97.91 49.834"></path></g><!----></svg>
