<?xml version="1.0" standalone="no"?>
<!DOCTYPE svg PUBLIC "-//W3C//DTD SVG 20010904//EN"
 "http://www.w3.org/TR/2001/REC-SVG-20010904/DTD/svg10.dtd">
<svg version="1.0" xmlns="http://www.w3.org/2000/svg"
 width="398.000000pt" height="46.000000pt" viewBox="0 0 398.000000 46.000000"
 preserveAspectRatio="xMidYMid meet">
<metadata>
Created by potrace 1.16, written by Peter Selinger 2001-2019
</metadata>
<g transform="translate(0.000000,46.000000) scale(0.100000,-0.100000)"
fill="#000000" stroke="none">
<path d="M1341 347 c-19 -7 -44 -25 -55 -40 -27 -37 -28 -112 -3 -151 24 -37
80 -60 125 -51 38 7 92 54 92 79 0 21 -63 22 -80 0 -20 -23 -62 -13 -80 18
-13 25 -13 31 0 55 18 32 60 42 80 19 15 -19 80 -22 80 -3 0 23 -32 59 -66 73
-39 17 -48 17 -93 1z"/>
<path d="M2194 346 c-49 -22 -74 -61 -74 -118 0 -43 5 -55 33 -83 41 -41 90
-52 140 -31 99 41 100 191 2 232 -42 17 -61 17 -101 0z"/>
<path d="M600 230 l0 -120 26 -6 c33 -8 42 2 46 51 l3 40 25 -44 c19 -34 32
-45 54 -47 44 -4 47 2 20 50 l-25 44 26 26 c32 32 32 70 0 101 -21 22 -33 25
-100 25 l-75 0 0 -120z"/>
<path d="M822 228 l3 -123 78 -2 77 -2 0 30 c0 28 -2 29 -46 29 -41 0 -45 2
-42 23 2 18 10 23 41 25 32 3 37 7 37 28 0 21 -4 24 -41 24 -33 0 -40 3 -37
18 2 12 15 18 46 20 37 3 42 6 42 28 0 23 -2 24 -80 24 l-81 0 3 -122z"/>
<path d="M1042 236 c-23 -63 -42 -118 -42 -123 0 -4 14 -9 30 -10 24 -2 33 3
42 22 9 20 19 25 49 25 26 0 42 -6 52 -20 13 -19 77 -38 77 -23 0 5 -19 61
-41 126 l-42 117 -42 0 -42 0 -41 -114z"/>
<path d="M1520 325 c0 -21 5 -25 30 -25 l29 0 3 -97 3 -97 30 -1 30 0 3 98 3
97 34 0 c31 0 35 3 35 25 l0 25 -100 0 -100 0 0 -25z"/>
<path d="M1932 228 l3 -122 30 -1 c29 0 30 2 33 47 3 46 4 47 40 50 32 3 37 6
37 28 0 22 -4 25 -35 25 -29 0 -36 4 -38 23 -3 20 0 22 47 22 48 0 51 2 51 25
0 25 -1 25 -85 25 l-86 0 3 -122z"/>
<path d="M2400 231 l0 -119 27 -5 c39 -7 45 0 41 44 -2 22 -1 39 2 39 4 0 16
-18 29 -40 12 -22 28 -40 34 -41 7 0 22 -2 35 -5 28 -5 28 7 0 55 l-21 37 26
27 c34 33 34 70 2 102 -21 22 -33 25 -100 25 l-75 0 0 -119z"/>
<path d="M2622 228 l3 -123 30 0 c30 0 30 0 33 65 l4 65 22 -59 c37 -99 74
-102 103 -9 l18 58 5 -60 c5 -58 6 -59 35 -60 l30 0 3 123 3 123 -43 -3 c-42
-3 -42 -3 -68 -70 -14 -36 -27 -69 -30 -72 -3 -3 -19 28 -34 69 l-29 75 -44 0
-44 0 3 -122z"/>
<path d="M3172 234 c-23 -64 -39 -120 -36 -126 9 -14 56 1 72 23 9 13 25 19
51 19 30 0 40 -5 49 -24 8 -19 18 -24 41 -24 17 1 31 5 31 11 0 5 -19 61 -41
123 l-42 114 -41 0 -42 0 -42 -116z"/>
<path d="M3400 230 l0 -119 33 -6 c18 -4 51 -5 72 -3 35 3 40 6 43 31 3 26 1
27 -37 27 l-41 0 0 95 0 95 -35 0 -35 0 0 -120z"/>
<path d="M3572 228 l3 -123 65 0 c63 0 65 1 68 28 3 25 1 27 -32 27 l-36 0 0
95 0 95 -35 0 -36 0 3 -122z"/>
<path d="M3722 343 c2 -5 19 -37 38 -73 19 -37 36 -86 39 -115 6 -47 8 -49 36
-50 28 0 30 3 35 45 3 25 24 80 47 123 l40 77 -39 0 c-37 0 -41 -3 -56 -40 -9
-22 -20 -40 -23 -40 -3 0 -14 18 -24 40 -17 37 -21 40 -57 40 -22 0 -38 -3
-36 -7z"/>
</g>
</svg>
